999
"DXF R12 Output" (www.mydxf.blogspot.com)
 0 
SECTION
 2 
HEADER
 9 
$ACADVER
 1 
AC1009
 9 
$EXTMIN
 10 
 0 
 20 
 0 
 9 
$EXTMAX
 10 
 8.5 
 20 
 11 
 0 
ENDSEC
 0 
SECTION
 2 
ENTITIES
0
LINE
8
Layer 1
10
27.679400
20
-226.266000
11
26.305844
21
-226.436483
0
LINE
8
Layer 1
10
26.305844
20
-226.436483
11
25.020756
21
-226.866086
0
LINE
8
Layer 1
10
25.020756
20
-226.866086
11
23.002260
21
-228.011580
0
LINE
8
Layer 1
10
23.002260
20
-228.011580
11
22.887607
21
-228.271254
0
LINE
8
Layer 1
10
22.887607
20
-228.271254
11
23.054961
21
-228.500473
0
LINE
8
Layer 1
10
23.054961
20
-228.500473
11
23.336970
21
-228.470018
0
LINE
8
Layer 1
10
23.336970
20
-228.470018
11
25.244214
21
-227.394241
0
LINE
8
Layer 1
10
25.244214
20
-227.394241
11
26.438695
21
-226.990490
0
LINE
8
Layer 1
10
26.438695
20
-226.990490
11
27.679390
21
-226.830229
0
LINE
8
Layer 1
10
27.679390
20
-226.830229
11
27.926820
21
-226.690331
0
LINE
8
Layer 1
10
27.926820
20
-226.690331
11
27.926820
21
-226.405897
0
LINE
8
Layer 1
10
27.926820
20
-226.405897
11
27.679390
21
-226.265999
0
LINE
8
Layer 1
10
27.679390
20
-226.265999
11
27.679400
21
-226.266000
0
LINE
8
Layer 1
10
16.343300
20
-227.958690
11
16.113948
21
-228.126316
0
LINE
8
Layer 1
10
16.113948
20
-228.126316
11
16.144825
21
-228.408876
0
LINE
8
Layer 1
10
16.144825
20
-228.408876
11
16.404957
21
-228.522917
0
LINE
8
Layer 1
10
16.404957
20
-228.522917
11
17.955478
21
-228.652752
0
LINE
8
Layer 1
10
17.955478
20
-228.652752
11
19.188337
21
-229.078330
0
LINE
8
Layer 1
10
19.188337
20
-229.078330
11
20.070149
21
-229.758139
0
LINE
8
Layer 1
10
20.070149
20
-229.758139
11
20.791427
21
-230.779840
0
LINE
8
Layer 1
10
20.791427
20
-230.779840
11
18.941717
21
-230.779840
0
LINE
8
Layer 1
10
18.941717
20
-230.779840
11
18.880060
21
-230.779840
0
LINE
8
Layer 1
10
18.880060
20
-230.779840
11
18.651375
21
-230.947620
0
LINE
8
Layer 1
10
18.651375
20
-230.947620
11
18.682204
21
-231.229735
0
LINE
8
Layer 1
10
18.682204
20
-231.229735
11
18.941717
21
-231.344070
0
LINE
8
Layer 1
10
18.941717
20
-231.344070
11
23.451497
21
-231.344070
0
LINE
8
Layer 1
10
23.451497
20
-231.344070
11
23.698927
21
-231.204172
0
LINE
8
Layer 1
10
23.698927
20
-231.204172
11
23.698927
21
-230.919738
0
LINE
8
Layer 1
10
23.698927
20
-230.919738
11
23.451497
21
-230.779840
0
LINE
8
Layer 1
10
23.451497
20
-230.779840
11
21.619397
21
-230.779840
0
LINE
8
Layer 1
10
21.619397
20
-230.779840
11
22.271201
21
-229.801255
0
LINE
8
Layer 1
10
22.271201
20
-229.801255
11
22.314157
21
-229.502212
0
LINE
8
Layer 1
10
22.314157
20
-229.502212
11
22.062277
21
-229.335727
0
LINE
8
Layer 1
10
22.062277
20
-229.335727
11
21.804368
21
-229.492693
0
LINE
8
Layer 1
10
21.804368
20
-229.492693
11
21.196605
21
-230.436012
0
LINE
8
Layer 1
10
21.196605
20
-230.436012
11
20.418049
21
-229.347869
0
LINE
8
Layer 1
10
20.418049
20
-229.347869
11
19.452585
21
-228.584632
0
LINE
8
Layer 1
10
19.452585
20
-228.584632
11
18.065296
21
-228.100625
0
LINE
8
Layer 1
10
18.065296
20
-228.100625
11
16.404965
21
-227.958692
0
LINE
8
Layer 1
10
16.404965
20
-227.958692
11
16.343308
21
-227.958692
0
LINE
8
Layer 1
10
16.343308
20
-227.958692
11
16.343300
21
-227.958690
0
LINE
8
Layer 1
10
12.705530
20
-233.318860
11
11.805102
21
-233.396185
0
LINE
8
Layer 1
10
11.805102
20
-233.396185
11
11.025795
21
-233.614690
0
LINE
8
Layer 1
10
11.025795
20
-233.614690
11
9.790030
21
-234.394420
0
LINE
8
Layer 1
10
9.790030
20
-234.394420
11
8.896987
21
-235.488578
0
LINE
8
Layer 1
10
8.896987
20
-235.488578
11
8.195750
21
-236.739500
0
LINE
8
Layer 1
10
8.195750
20
-236.739500
11
7.536282
21
-238.004053
0
LINE
8
Layer 1
10
7.536282
20
-238.004053
11
6.786440
21
-239.155110
0
LINE
8
Layer 1
10
6.786440
20
-239.155110
11
5.820539
21
-240.077773
0
LINE
8
Layer 1
10
5.820539
20
-240.077773
11
4.496320
21
-240.662660
0
LINE
8
Layer 1
10
4.496320
20
-240.662660
11
4.271683
21
-240.854358
0
LINE
8
Layer 1
10
4.271683
20
-240.854358
11
4.341100
21
-241.141540
0
LINE
8
Layer 1
10
4.341100
20
-241.141540
11
4.628443
21
-241.209259
0
LINE
8
Layer 1
10
4.628443
20
-241.209259
11
5.439388
21
-240.932251
0
LINE
8
Layer 1
10
5.439388
20
-240.932251
11
6.134251
21
-240.541551
0
LINE
8
Layer 1
10
6.134251
20
-240.541551
11
7.226853
21
-239.507749
0
LINE
8
Layer 1
10
7.226853
20
-239.507749
11
8.030037
21
-238.278508
0
LINE
8
Layer 1
10
8.030037
20
-238.278508
11
8.697813
21
-236.995169
0
LINE
8
Layer 1
10
8.697813
20
-236.995169
11
9.369213
21
-235.796019
0
LINE
8
Layer 1
10
9.369213
20
-235.796019
11
10.168773
21
-234.808779
0
LINE
8
Layer 1
10
10.168773
20
-234.808779
11
11.226276
21
-234.135411
0
LINE
8
Layer 1
10
11.226276
20
-234.135411
11
12.705523
21
-233.883091
0
LINE
8
Layer 1
10
12.705523
20
-233.883091
11
13.550434
21
-233.971801
0
LINE
8
Layer 1
10
13.550434
20
-233.971801
11
14.359608
21
-234.228384
0
LINE
8
Layer 1
10
14.359608
20
-234.228384
11
15.081624
21
-234.638515
0
LINE
8
Layer 1
10
15.081624
20
-234.638515
11
15.665063
21
-235.187871
0
LINE
8
Layer 1
10
15.665063
20
-235.187871
11
14.769902
21
-235.692418
0
LINE
8
Layer 1
10
14.769902
20
-235.692418
11
14.094042
21
-236.387888
0
LINE
8
Layer 1
10
14.094042
20
-236.387888
11
13.684010
21
-237.215084
0
LINE
8
Layer 1
10
13.684010
20
-237.215084
11
13.586333
21
-238.114811
0
LINE
8
Layer 1
10
13.586333
20
-238.114811
11
13.595141
21
-238.141255
0
LINE
8
Layer 1
10
13.595141
20
-238.141255
11
13.730360
21
-238.901416
0
LINE
8
Layer 1
10
13.730360
20
-238.901416
11
14.082496
21
-239.528773
0
LINE
8
Layer 1
10
14.082496
20
-239.528773
11
14.600535
21
-240.026601
0
LINE
8
Layer 1
10
14.600535
20
-240.026601
11
15.233461
21
-240.398175
0
LINE
8
Layer 1
10
15.233461
20
-240.398175
11
16.617169
21
-240.818758
0
LINE
8
Layer 1
10
16.617169
20
-240.818758
11
17.990421
21
-240.935957
0
LINE
8
Layer 1
10
17.990421
20
-240.935957
11
17.532396
21
-241.614794
0
LINE
8
Layer 1
10
17.532396
20
-241.614794
11
16.559915
21
-242.562517
0
LINE
8
Layer 1
10
16.559915
20
-242.562517
11
15.198236
21
-243.201684
0
LINE
8
Layer 1
10
15.198236
20
-243.201684
11
14.964316
21
-243.398086
0
LINE
8
Layer 1
10
14.964316
20
-243.398086
11
15.046283
21
-243.692467
0
LINE
8
Layer 1
10
15.046283
20
-243.692467
11
15.347975
21
-243.739464
0
LINE
8
Layer 1
10
15.347975
20
-243.739464
11
16.176145
21
-243.429862
0
LINE
8
Layer 1
10
16.176145
20
-243.429862
11
16.879596
21
-243.016630
0
LINE
8
Layer 1
10
16.879596
20
-243.016630
11
17.972805
21
-241.958614
0
LINE
8
Layer 1
10
17.972805
20
-241.958614
11
18.766865
21
-240.725344
0
LINE
8
Layer 1
10
18.766865
20
-240.725344
11
19.417345
21
-239.454844
0
LINE
8
Layer 1
10
19.417345
20
-239.454844
11
20.070516
21
-238.276434
0
LINE
8
Layer 1
10
20.070516
20
-238.276434
11
20.861885
21
-237.312534
0
LINE
8
Layer 1
10
20.861885
20
-237.312534
11
21.927961
21
-236.662790
0
LINE
8
Layer 1
10
21.927961
20
-236.662790
11
23.451485
21
-236.422112
0
LINE
8
Layer 1
10
23.451485
20
-236.422112
11
24.263481
21
-236.504261
0
LINE
8
Layer 1
10
24.263481
20
-236.504261
11
25.065776
21
-236.762261
0
LINE
8
Layer 1
10
25.065776
20
-236.762261
11
25.794206
21
-237.178584
0
LINE
8
Layer 1
10
25.794206
20
-237.178584
11
26.384605
21
-237.735702
0
LINE
8
Layer 1
10
26.384605
20
-237.735702
11
25.468221
21
-238.300303
0
LINE
8
Layer 1
10
25.468221
20
-238.300303
11
24.834519
21
-239.084539
0
LINE
8
Layer 1
10
24.834519
20
-239.084539
11
24.502420
21
-240.007638
0
LINE
8
Layer 1
10
24.502420
20
-240.007638
11
24.490845
21
-240.988832
0
LINE
8
Layer 1
10
24.490845
20
-240.988832
11
24.856942
21
-242.022249
0
LINE
8
Layer 1
10
24.856942
20
-242.022249
11
25.610249
21
-242.897520
0
LINE
8
Layer 1
10
25.610249
20
-242.897520
11
26.741925
21
-243.503896
0
LINE
8
Layer 1
10
26.741925
20
-243.503896
11
28.243125
21
-243.730632
0
LINE
8
Layer 1
10
28.243125
20
-243.730632
11
28.490642
21
-243.590766
0
LINE
8
Layer 1
10
28.490642
20
-243.590766
11
28.490642
21
-243.306271
0
LINE
8
Layer 1
10
28.490642
20
-243.306271
11
28.243125
21
-243.166405
0
LINE
8
Layer 1
10
28.243125
20
-243.166405
11
26.911860
21
-242.977318
0
LINE
8
Layer 1
10
26.911860
20
-242.977318
11
25.951396
21
-242.473363
0
LINE
8
Layer 1
10
25.951396
20
-242.473363
11
25.337457
21
-241.749496
0
LINE
8
Layer 1
10
25.337457
20
-241.749496
11
25.045765
21
-240.900675
0
LINE
8
Layer 1
10
25.045765
20
-240.900675
11
25.058794
21
-240.021507
0
LINE
8
Layer 1
10
25.058794
20
-240.021507
11
25.374045
21
-239.202980
0
LINE
8
Layer 1
10
25.374045
20
-239.202980
11
25.989785
21
-238.534626
0
LINE
8
Layer 1
10
25.989785
20
-238.534626
11
26.904285
21
-238.105975
0
LINE
8
Layer 1
10
26.904285
20
-238.105975
11
27.095115
21
-237.936842
0
LINE
8
Layer 1
10
27.095115
20
-237.936842
11
27.071640
21
-237.682803
0
LINE
8
Layer 1
10
27.071640
20
-237.682803
11
26.383880
21
-236.884720
0
LINE
8
Layer 1
10
26.383880
20
-236.884720
11
25.491183
21
-236.310146
0
LINE
8
Layer 1
10
25.491183
20
-236.310146
11
24.483674
21
-235.965668
0
LINE
8
Layer 1
10
24.483674
20
-235.965668
11
23.451480
21
-235.857873
0
LINE
8
Layer 1
10
23.451480
20
-235.857873
11
23.442672
21
-235.857873
0
LINE
8
Layer 1
10
23.442672
20
-235.857873
11
22.521334
21
-235.932723
0
LINE
8
Layer 1
10
22.521334
20
-235.932723
11
21.728797
21
-236.142684
0
LINE
8
Layer 1
10
21.728797
20
-236.142684
11
20.483132
21
-236.898173
0
LINE
8
Layer 1
10
20.483132
20
-236.898173
11
19.592468
21
-237.969106
0
LINE
8
Layer 1
10
19.592468
20
-237.969106
11
18.906472
21
-239.199173
0
LINE
8
Layer 1
10
18.906472
20
-239.199173
11
18.316325
21
-240.371713
0
LINE
8
Layer 1
10
18.316325
20
-240.371713
11
18.096121
21
-240.371713
0
LINE
8
Layer 1
10
18.096121
20
-240.371713
11
18.087313
21
-240.371713
0
LINE
8
Layer 1
10
18.087313
20
-240.371713
11
16.774328
21
-240.272141
0
LINE
8
Layer 1
10
16.774328
20
-240.272141
11
15.471293
21
-239.886827
0
LINE
8
Layer 1
10
15.471293
20
-239.886827
11
14.514756
21
-239.194636
0
LINE
8
Layer 1
10
14.514756
20
-239.194636
11
14.245541
21
-238.711754
0
LINE
8
Layer 1
10
14.245541
20
-238.711754
11
14.150073
21
-238.114797
0
LINE
8
Layer 1
10
14.150073
20
-238.114797
11
14.150073
21
-238.088353
0
LINE
8
Layer 1
10
14.150073
20
-238.088353
11
14.242756
21
-237.308553
0
LINE
8
Layer 1
10
14.242756
20
-237.308553
11
14.638490
21
-236.572057
0
LINE
8
Layer 1
10
14.638490
20
-236.572057
11
15.300888
21
-235.963359
0
LINE
8
Layer 1
10
15.300888
20
-235.963359
11
16.193563
21
-235.566953
0
LINE
8
Layer 1
10
16.193563
20
-235.566953
11
16.384393
21
-235.397820
0
LINE
8
Layer 1
10
16.384393
20
-235.397820
11
16.360918
21
-235.143781
0
LINE
8
Layer 1
10
16.360918
20
-235.143781
11
15.676589
21
-234.347429
0
LINE
8
Layer 1
10
15.676589
20
-234.347429
11
14.785529
21
-233.776910
0
LINE
8
Layer 1
10
14.785529
20
-233.776910
11
13.768315
21
-233.433594
0
LINE
8
Layer 1
10
13.768315
20
-233.433594
11
12.705528
21
-233.318851
0
LINE
8
Layer 1
10
12.705528
20
-233.318851
11
12.705530
21
-233.318860
 0 
ENDSEC
 0 
EOF