<svg xmlns:dc="http://purl.org/dc/elements/1.1/" xmlns:cc="http://creativecommons.org/ns#" xmlns:rdf="http://www.w3.org/1999/02/22-rdf-syntax-ns#" xmlns:svg="http://www.w3.org/2000/svg" xmlns="http://www.w3.org/2000/svg" xmlns:sodipodi="http://sodipodi.sourceforge.net/DTD/sodipodi-0.dtd" xmlns:inkscape="http://www.inkscape.org/namespaces/inkscape" version="1.1" x="0px" y="0px" viewBox="0 0 100 125"><g transform="translate(0,-952.36218)"><g transform="translate(-8.182793,44.655591)"><path style="text-indent:0;text-transform:none;direction:ltr;block-progression:tb;baseline-shift:baseline;color:#000000;enable-background:accumulate;" d="m 98.076577,926.7302 c -6.585536,0 -13.011358,3.6084 -16.572539,6.18514 a 1.0050413,1.0059445 0 1 0 1.185982,1.62439 c 3.341488,-2.41779 9.550885,-5.81029 15.386557,-5.81029 a 0.99882164,0.99971931 0 1 0 0,-1.99924 z m -40.167341,5.99772 a 1.0046778,1.0055808 0 1 0 0.21847,1.99923 c 4.073887,0 7.289263,0.57079 9.862378,1.968 2.294171,1.24575 4.144512,3.16799 5.68023,6.02896 l -6.554112,0 a 0.99882164,0.99971931 0 0 0 -0.21847,0 1.0046778,1.0055808 0 1 0 0.21847,1.99924 l 15.979548,0 a 0.99882164,0.99971931 0 1 0 0,-1.99924 l -6.491691,0 c 0.700464,-1.199 1.395348,-2.09604 2.309544,-3.46743 a 0.99882164,0.99971931 0 1 0 -1.654133,-1.09333 c -0.772558,1.15891 -1.453497,2.21483 -2.153494,3.34247 -1.651219,-2.91111 -3.64536,-5.18389 -6.179591,-6.56 -2.976218,-1.6161 -6.532493,-2.2179 -10.798679,-2.2179 a 0.99882164,0.99971931 0 0 0 -0.21847,0 z m -12.889753,18.99276 c -4.556075,0 -7.871968,1.5249 -10.330528,3.81105 -2.45856,2.28615 -4.096635,5.28258 -5.64902,8.30934 -1.552385,3.02676 -3.014273,6.06869 -4.993609,8.55924 -1.979336,2.49055 -4.44243,4.44696 -8.114614,5.34171 a 0.99882164,0.99971931 0 1 0 0.468151,1.93677 c 4.125598,-1.00523 7.033524,-3.29417 9.206966,-6.02896 2.173442,-2.73479 3.678353,-5.91249 5.212079,-8.90286 1.533726,-2.99037 3.072857,-5.75784 5.212079,-7.74705 2.139222,-1.9892 4.856778,-3.28 8.988496,-3.28 3.995152,0 8.138504,1.72153 10.486579,4.62324 -4.673891,1.83947 -7.715245,6.04228 -7.365573,10.37105 0,0.0351 0.0308,0.0589 0.03121,0.0937 0.04609,3.91019 2.62382,6.53457 5.80507,7.99695 3.073504,1.41286 6.744665,1.92598 9.768747,1.90553 -0.507677,0.83898 -1.030022,1.64486 -1.622923,2.40533 -1.969162,2.5257 -4.462749,4.55488 -8.270664,5.62286 a 0.99882164,0.99971931 0 1 0 0.530571,1.90552 c 4.231038,-1.18666 7.140811,-3.5399 9.300596,-6.31009 2.159785,-2.7702 3.637005,-5.92556 5.118449,-8.87163 1.481444,-2.94606 2.984103,-5.65825 5.118449,-7.59086 2.134347,-1.9326 4.880226,-3.15504 9.175756,-3.15504 3.758062,-0.0549 8.030765,1.71742 10.392949,4.65447 -4.967324,2.02139 -7.442452,6.88124 -6.710162,11.52686 0.800993,5.08147 5.344243,9.71505 13.295483,9.71505 a 0.99882164,0.99971931 0 1 0 0,-1.99923 c -7.203596,0 -10.674167,-3.87238 -11.32925,-8.0282 -0.655082,-4.15581 1.561836,-8.58458 6.585322,-9.90248 a 0.99882164,0.99971931 0 0 0 0.592991,-1.49943 c -2.623231,-4.28807 -8.034461,-6.52649 -12.827333,-6.46628 -0.01007,1.3e-4 -0.02114,-1.5e-4 -0.03121,0 -4.675544,0.007 -8.023051,1.45542 -10.486578,3.68609 -2.469373,2.23597 -4.084174,5.16536 -5.5866,8.15315 -0.698461,1.38899 -1.370061,2.79869 -2.091074,4.15467 l -0.780251,0 a 0.99882164,0.99971931 0 0 0 -0.03121,0 c -2.843141,0.0646 -6.473231,-0.43274 -9.269386,-1.7181 -2.796156,-1.28536 -4.681509,-3.16208 -4.681509,-6.27886 a 0.99882164,0.99971931 0 0 0 0,-0.0937 c -0.335302,-3.65333 2.536695,-7.69584 7.240733,-8.9341 a 0.99882164,0.99971931 0 0 0 0.592991,-1.49943 c -2.61781,-4.2936 -7.950384,-6.46629 -12.952173,-6.46629 z" fill="#000000" fill-opacity="1" stroke="none" marker="none" visibility="visible" display="inline" overflow="visible"/></g></g><text x="0" y="115" fill="#000000" font-size="5px" font-weight="bold" font-family="'Helvetica Neue', Helvetica, Arial-Unicode, Arial, Sans-serif">Created by vigorn</text><text x="0" y="120" fill="#000000" font-size="5px" font-weight="bold" font-family="'Helvetica Neue', Helvetica, Arial-Unicode, Arial, Sans-serif">from the Noun Project</text></svg>